<?xml version="1.0" encoding="UTF-8"?>
<svg width="29px" height="27px" viewBox="0 0 29 27" version="1.1" xmlns="http://www.w3.org/2000/svg" xmlns:xlink="http://www.w3.org/1999/xlink">
    <!-- Generator: Sketch 61.1 (89650) - https://sketch.com -->
    <title>calendar</title>
    <desc>Created with Sketch.</desc>
    <g id="calendar" stroke="none" stroke-width="1" fill="none" fill-rule="evenodd">
        <g id="_ionicons_svg_md-calendar" transform="translate(4.000000, 4.000000)" fill="#DF8162" fill-rule="nonzero">
            <path d="M16.6251139,10.8333333 L11.3752506,10.8333333 L11.3752506,15.8333333 L16.6251139,15.8333333 L16.6251139,10.8333333 Z M14.8751595,0 L14.8751595,1.66666667 L6.12538736,1.66666667 L6.12538736,0 L3.50045572,0 L3.50045572,1.66666667 L2.18744304,1.66666667 C0.984239994,1.66666667 0,2.6040625 0,3.75 L0,17.9166667 C0,19.0626042 0.984239994,20 2.18744304,20 L18.812557,20 C20.01576,20 21,19.0626042 21,17.9166667 L21,3.75 C21,2.6040625 20.01576,1.66666667 18.812557,1.66666667 L17.5000911,1.66666667 L17.5000911,0 L14.8751595,0 Z M18.812557,17.9166667 L2.18744304,17.9166667 L2.18744304,6.875 L18.812557,6.875 L18.812557,17.9166667 Z" id="Shape"></path>
        </g>
    </g>
</svg>