<?xml version="1.0" encoding="UTF-8"?>
<svg width="62px" height="75px" viewBox="0 0 62 75" version="1.1" xmlns="http://www.w3.org/2000/svg" xmlns:xlink="http://www.w3.org/1999/xlink">
    <!-- Generator: Sketch 60 (88103) - https://sketch.com -->
    <title>Artboard</title>
    <desc>Created with Sketch.</desc>
    <g id="Artboard" stroke="none" stroke-width="1" fill="none" fill-rule="evenodd">
        <g id="CPE-logo" transform="translate(5.000000, 5.000000)" fill="#FFFFFF" fill-rule="nonzero">
            <path d="M28.8928708,16.0971981 C27.1595067,15.1406126 25.0317196,15.2708213 23.4272081,16.4316663 L16.6632712,21.2580775 C15.4729374,22.1292809 14.7921713,23.5367278 14.8468201,25.013491 C14.9014689,26.4902543 15.6843868,27.8432327 16.935837,28.6235694 L22.2544576,31.8315864 L26.0416885,29.1306663 L19.180919,24.9911735 C19.1512081,24.936255 19.1398922,24.8732125 19.1486414,24.8113519 C19.1514788,24.7768565 19.1625494,24.7435518 19.180919,24.7142483 L25.9448559,19.8842406 C26.0849025,19.7825293 26.2525534,19.726071 26.4254325,19.7224012 C26.5595338,19.7247353 26.691124,19.7592665 26.8091766,19.8231013 L33.7524331,23.6353188 L37.6149782,20.8804522 L28.8928708,16.0971981 Z M28.8928708,16.0971981 C27.1595067,15.1406126 25.0317196,15.2708213 23.4272081,16.4316663 L16.6632712,21.2580775 C15.4729374,22.1292809 14.7921713,23.5367278 14.8468201,25.013491 C14.9014689,26.4902543 15.6843868,27.8432327 16.935837,28.6235694 L22.2544576,31.8315864 L26.0416885,29.1306663 L19.180919,24.9911735 C19.1512081,24.936255 19.1398922,24.8732125 19.1486414,24.8113519 C19.1514788,24.7768565 19.1625494,24.7435518 19.180919,24.7142483 L25.9448559,19.8842406 C26.0849025,19.7825293 26.2525534,19.726071 26.4254325,19.7224012 C26.5595338,19.7247353 26.691124,19.7592665 26.8091766,19.8231013 L33.7524331,23.6353188 L37.6149782,20.8804522 L28.8928708,16.0971981 Z M28.8928708,16.0971981 C27.1595067,15.1406126 25.0317196,15.2708213 23.4272081,16.4316663 L16.6632712,21.2580775 C15.4729374,22.1292809 14.7921713,23.5367278 14.8468201,25.013491 C14.9014689,26.4902543 15.6843868,27.8432327 16.935837,28.6235694 L22.2544576,31.8315864 L26.0416885,29.1306663 L19.180919,24.9911735 C19.1512081,24.936255 19.1398922,24.8732125 19.1486414,24.8113519 C19.1514788,24.7768565 19.1625494,24.7435518 19.180919,24.7142483 L25.9448559,19.8842406 C26.0849025,19.7825293 26.2525534,19.726071 26.4254325,19.7224012 C26.5595338,19.7247353 26.691124,19.7592665 26.8091766,19.8231013 L33.7524331,23.6353188 L37.6149782,20.8804522 L28.8928708,16.0971981 Z M50.2534267,44.2644504 L46.0394151,41.3369551 L42.1553516,43.8544572 L46.7064841,47.019317 L27.4439681,60.5239177 C27.0999207,60.779408 26.6338204,60.7937456 26.274804,60.559882 L5.55621249,47.6882533 C4.75459248,47.1517176 4.28236945,46.2412632 4.30456138,45.2750477 L4.30456138,20.1395873 C4.2878506,19.2001155 4.73308937,18.3125247 5.49524381,17.7659424 L25.471452,4.4591455 C25.6422138,4.34015728 25.8445283,4.27503507 26.0524477,4.27213105 C26.2646917,4.27580993 26.4713836,4.34073802 26.6477889,4.4591455 L46.8750446,16.6690308 C46.3012217,17.2084955 45.4153827,17.8738354 44.9097013,18.2586535 C44.7339681,18.3917215 44.551062,18.5175966 44.4004335,18.6434717 L44.4004335,18.6434717 L19.4283801,36.478176 L19.4283801,36.478176 L19.3243747,36.5501046 L19.2562332,36.6004547 C16.9307768,38.4171955 16.2958168,41.6745284 17.7678802,44.235679 C20.2138001,48.4758718 24.603545,49.0980545 27.8564033,48.8714793 C29.4061153,48.7714857 30.9198297,48.3592781 32.3071168,47.6594819 L35.6065982,45.5303944 L36.0907613,45.2139084 L39.5157665,43.0092958 L40.0106887,42.6928098 L47.4775586,37.8771879 L48.2378739,37.3844768 L49.672431,36.4709832 C51.2109936,35.2517928 51.9928272,33.8383952 52,32.2631582 C52,29.6089917 49.7764364,27.6525329 47.9079257,26.4836926 C47.3376893,26.1240494 46.6993114,25.7644063 46.0035511,25.4047631 L42.0728646,28.195594 L42.7901431,28.5983944 L42.980222,28.695498 C43.8729547,29.0987135 44.7390447,29.5587979 45.573184,30.0729313 C47.1009874,31.0295821 47.6676374,31.9107079 47.6676374,32.2307903 C47.6676374,32.4178047 47.3843124,32.9105159 46.3334993,33.56147 L40.068071,37.5930698 L34.0178262,33.9426917 L30.227009,36.6472083 L36.0800021,40.1753077 L30.4350197,43.8077036 C29.5482619,44.2818044 28.5692357,44.556699 27.5659055,44.6133043 C24.585613,44.8254938 22.6059241,44.0019109 21.5156607,42.0958022 C21.1174799,41.3808836 21.2664242,40.4847164 21.8743,39.9379432 L28.2222154,35.4352109 L28.2222154,35.4352109 L31.5611471,33.086741 L32.0381374,32.7270979 L32.0381374,32.7270979 L39.9784111,27.0447359 L39.9784111,27.0447359 L43.1057457,24.8149483 L43.8230243,24.2934658 L43.8230243,24.2934658 L46.796144,22.1715711 L46.8642854,22.1212211 L47.499077,21.6392992 C49.4931114,20.1395873 51.7453661,18.4528608 51.6449471,16.2158804 C51.6198424,15.5936977 51.3616221,14.4176646 49.9306513,13.5113638 L28.9179756,0.830346014 C27.1238692,-0.306073877 24.8300065,-0.27363579 23.0685688,0.913063941 L3.09594699,14.2198609 C1.13711462,15.5455394 -0.0258851505,17.769938 0.000437472915,20.1395873 L0.000437472915,45.285837 C-0.0128830491,47.7220236 1.22061072,49.9949637 3.26809385,51.3062635 L23.9866854,64.1814886 C25.82166,65.330226 28.1642878,65.2650496 29.9329247,64.0160528 L50.2677722,49.7490086 C51.1523325,49.1213874 51.6781681,48.1023399 51.6781681,47.0157206 C51.6781681,45.9291013 51.1523325,44.9100538 50.2677722,44.2824326 L50.2534267,44.2644504 Z M19.180919,24.7142483 L25.9448559,19.8842406 C26.0849025,19.7825293 26.2525534,19.726071 26.4254325,19.7224012 C26.5595338,19.7247353 26.691124,19.7592665 26.8091766,19.8231013 L33.7524331,23.6353188 L37.6149782,20.8804522 L28.8928708,16.0971981 C27.1595067,15.1406126 25.0317196,15.2708213 23.4272081,16.4316663 L16.6632712,21.2580775 C15.4729374,22.1292809 14.7921713,23.5367278 14.8468201,25.013491 C14.9014689,26.4902543 15.6843868,27.8432327 16.935837,28.6235694 L22.2544576,31.8315864 L26.0416885,29.1306663 L19.180919,24.9911735 C19.1512081,24.936255 19.1398922,24.8732125 19.1486414,24.8113519 C19.1514788,24.7768565 19.1625494,24.7435518 19.180919,24.7142483 Z M28.8928708,16.0828124 C27.1595067,15.1262269 25.0317196,15.2564356 23.4272081,16.4172806 L16.6632712,21.2580775 C15.4729374,22.1292809 14.7921713,23.5367278 14.8468201,25.013491 C14.9014689,26.4902543 15.6843868,27.8432327 16.935837,28.6235694 L22.2544576,31.8315864 L26.0416885,29.1306663 L19.180919,24.9911735 C19.1512081,24.936255 19.1398922,24.8732125 19.1486414,24.8113519 C19.1514788,24.7768565 19.1625494,24.7435518 19.180919,24.7142483 L25.9448559,19.8842406 C26.0849025,19.7825293 26.2525534,19.726071 26.4254325,19.7224012 C26.5595338,19.7247353 26.691124,19.7592665 26.8091766,19.8231013 L33.7524331,23.6353188 L37.6149782,20.8804522 L28.8928708,16.0828124 Z M28.8928708,16.0828124 C27.1595067,15.1262269 25.0317196,15.2564356 23.4272081,16.4172806 L16.6632712,21.2580775 C15.4729374,22.1292809 14.7921713,23.5367278 14.8468201,25.013491 C14.9014689,26.4902543 15.6843868,27.8432327 16.935837,28.6235694 L22.2544576,31.8315864 L26.0416885,29.1306663 L19.180919,24.9911735 C19.1512081,24.936255 19.1398922,24.8732125 19.1486414,24.8113519 C19.1514788,24.7768565 19.1625494,24.7435518 19.180919,24.7142483 L25.9448559,19.8842406 C26.0849025,19.7825293 26.2525534,19.726071 26.4254325,19.7224012 C26.5595338,19.7247353 26.691124,19.7592665 26.8091766,19.8231013 L33.7524331,23.6353188 L37.6149782,20.8804522 L28.8928708,16.0828124 Z" id="Shape"></path>
        </g>
    </g>
</svg>