<?xml version="1.0" encoding="UTF-8"?>
<svg width="60px" height="60px" viewBox="0 0 60 60" version="1.1" xmlns="http://www.w3.org/2000/svg" xmlns:xlink="http://www.w3.org/1999/xlink">
    <!-- Generator: Sketch 61.1 (89650) - https://sketch.com -->
    <title>rocket</title>
    <desc>Created with Sketch.</desc>
    <g id="rocket" stroke="none" stroke-width="1" fill="none" fill-rule="evenodd">
        <g id="_ionicons_svg_md-rocket" transform="translate(14.000000, 3.000000)" fill="#325C6F" fill-rule="nonzero">
            <path d="M17,46.3476514 C14.9821354,46.3476514 13.2987236,45.5568454 12.2173265,45.0800359 C11.6153117,44.8125573 10.9575547,45.2893669 11.0021484,45.9638779 L11.3923432,51.8949233 C11.4146401,52.2554378 11.8159833,52.4415098 12.0946939,52.2205493 L13.7112152,50.9413042 C13.9118868,50.7784912 14.2128942,50.8366387 14.3466753,51.0575992 L16.632102,54.790669 C16.7993284,55.069777 17.2006716,55.069777 17.367898,54.790669 L19.6533247,51.0575992 C19.7871058,50.8366387 20.0881132,50.7784912 20.2887848,50.9413042 L21.9053061,52.2205493 C22.1840167,52.4415098 22.5853599,52.2554378 22.6076568,51.8949233 L22.9978516,45.9638779 C23.0424453,45.2893669 22.3846883,44.8009278 21.7826735,45.0800359 C20.690128,45.5568454 19.0178646,46.3476514 17,46.3476514 L17,46.3476514 Z" id="Path"></path>
            <path d="M32.7215924,31.654233 L27.2221833,26.0453451 C27.2221833,7.99637788 16.544164,0 16.544164,0 C16.544164,0 5.7630308,7.99637788 5.7630308,26.0453451 L0.26362171,31.654233 C0.0573938691,31.8598542 -0.034262949,32.1682859 0.0115654601,32.4652942 L2.11967228,45.236652 C2.2227862,45.8877856 2.93312654,46.2076408 3.47161034,45.8535155 L11.159326,40.6672932 C11.159326,40.6672932 13.5309461,42.9519726 16.5556211,42.9519726 C19.5802961,42.9519726 21.8373453,40.6672932 21.8373453,40.6672932 L29.5250609,45.8535155 C30.0520876,46.2076408 30.7624279,45.8877856 30.876999,45.236652 L32.9965629,32.4538708 C33.0194771,32.1568625 32.9278203,31.8598542 32.7215924,31.654233 L32.7215924,31.654233 Z M16.544164,20.1051787 C14.5964566,20.1051787 13.0268336,18.4716329 13.0268336,16.4496916 C13.0268336,14.4277504 14.6079137,12.7942046 16.544164,12.7942046 C18.4918714,12.7942046 20.0614944,14.4277504 20.0614944,16.4496916 C20.0614944,18.4716329 18.4918714,20.1051787 16.544164,20.1051787 Z" id="Shape"></path>
        </g>
    </g>
</svg>